<svg width="125" height="50" viewBox="0 0 125 50" fill="none" xmlns="http://www.w3.org/2000/svg">
<rect x="21" y="3" width="9" height="10" fill="#00F0FF"/>
<rect x="22" y="31" width="4" height="5" fill="#00FF38"/>
<path d="M24.256 23.84C24.256 24.992 23.836 26.156 22.996 27.332C22.156 28.484 21.004 29.792 19.54 31.256C18.46 32.336 17.188 33.392 15.724 34.424C14.764 35.096 13.816 35.672 12.88 36.152C11.968 36.632 11.272 36.872 10.792 36.872C10.552 36.872 10.336 36.8 10.144 36.656C9.976 36.536 9.892 36.344 9.892 36.08C9.892 35.696 10.036 35.36 10.324 35.072C10.612 34.808 10.996 34.592 11.476 34.424C11.716 34.328 12.052 34.232 12.484 34.136C13.036 34.04 13.528 33.884 13.96 33.668C14.776 33.26 15.724 32.636 16.804 31.796C17.908 30.932 18.772 30.164 19.396 29.492C20.428 28.388 21.208 27.416 21.736 26.576C22.288 25.712 22.564 24.824 22.564 23.912C22.564 23.408 22.324 23.048 21.844 22.832C21.364 22.592 20.776 22.472 20.08 22.472C18.304 22.472 16.684 22.784 15.22 23.408C14.572 23.696 14.128 23.9 13.888 24.02C13.024 24.404 12.316 24.704 11.764 24.92C11.14 25.16 10.54 25.376 9.964 25.568C9.388 25.736 9.004 25.856 8.812 25.928L8.884 27.296C8.884 27.656 8.896 28.232 8.92 29.024C8.968 29.816 8.992 30.56 8.992 31.256C8.992 32.912 8.872 34.256 8.632 35.288C8.536 35.624 8.428 35.864 8.308 36.008C8.188 36.152 7.96 36.224 7.624 36.224C7.408 36.224 7.204 36.152 7.012 36.008C6.82 35.864 6.724 35.684 6.724 35.468C6.724 35.396 6.832 34.988 7.048 34.244C7.264 33.5 7.372 32.84 7.372 32.264C7.372 30.392 7.288 28.004 7.12 25.1L7.012 23.444C6.868 21.86 6.796 20.612 6.796 19.7C6.796 19.004 6.844 18.128 6.94 17.072C7.036 15.992 7.108 15.284 7.156 14.948C6.244 15.188 5.08 15.62 3.664 16.244C3.256 16.412 2.728 16.712 2.08 17.144C1.48 17.528 1.072 17.72 0.856 17.72C0.664 17.72 0.496 17.636 0.352 17.468C0.208 17.3 0.136 17.096 0.136 16.856C0.136 16.4 0.94 15.812 2.548 15.092C4.156 14.372 5.908 13.736 7.804 13.184C9.508 12.68 11.02 12.308 12.34 12.068C13.66 11.828 15.016 11.708 16.408 11.708C17.68 11.708 18.736 11.96 19.576 12.464C20.44 12.944 20.872 13.628 20.872 14.516C20.872 16.628 19.72 18.812 17.416 21.068C18.448 20.924 19.384 20.852 20.224 20.852C21.328 20.852 22.276 21.08 23.068 21.536C23.86 21.992 24.256 22.76 24.256 23.84ZM19.18 14.984C19.18 14.408 18.904 13.976 18.352 13.688C17.8 13.376 17.056 13.22 16.12 13.22C15.136 13.22 13.9 13.34 12.412 13.58C10.924 13.796 9.772 14.036 8.956 14.3C8.548 15.932 8.344 17.3 8.344 18.404C8.344 19.964 8.416 21.932 8.56 24.308C8.8 24.284 9.184 24.188 9.712 24.02C10.264 23.852 10.768 23.672 11.224 23.48C13.504 22.52 15.4 21.272 16.912 19.736C18.424 18.2 19.18 16.616 19.18 14.984Z" fill="black"/>
<path fill-rule="evenodd" clip-rule="evenodd" d="M17.1448 15.2448C16.1023 15.2929 14.8547 15.5559 13.5705 16.038C11.8138 16.6974 10.3783 17.6203 9.5819 18.515C9.21293 16.9129 10.4318 15.098 12.4561 14.3381C14.3098 13.6424 16.237 14.0572 17.1448 15.2448Z" fill="black"/>
<path fill-rule="evenodd" clip-rule="evenodd" d="M17.1448 15.2448C16.1023 15.2929 14.8547 15.5559 13.5705 16.038C11.8138 16.6974 10.3783 17.6203 9.5819 18.515C9.21293 16.9129 10.4318 15.098 12.4561 14.3381C14.3098 13.6424 16.237 14.0572 17.1448 15.2448Z" fill="black"/>
<path fill-rule="evenodd" clip-rule="evenodd" d="M17.1448 15.2448C16.1023 15.2929 14.8547 15.5559 13.5705 16.038C11.8138 16.6974 10.3783 17.6203 9.5819 18.515C9.21293 16.9129 10.4318 15.098 12.4561 14.3381C14.3098 13.6424 16.237 14.0572 17.1448 15.2448Z" fill="black"/>
<path fill-rule="evenodd" clip-rule="evenodd" d="M17.1448 15.2448C16.1023 15.2929 14.8547 15.5559 13.5705 16.038C11.8138 16.6974 10.3783 17.6203 9.5819 18.515C9.21293 16.9129 10.4318 15.098 12.4561 14.3381C14.3098 13.6424 16.237 14.0572 17.1448 15.2448Z" fill="black"/>
<path fill-rule="evenodd" clip-rule="evenodd" d="M17.1448 15.2448C16.1023 15.2929 14.8547 15.5559 13.5705 16.038C11.8138 16.6974 10.3783 17.6203 9.5819 18.515C9.21293 16.9129 10.4318 15.098 12.4561 14.3381C14.3098 13.6424 16.237 14.0572 17.1448 15.2448Z" fill="black"/>
<path d="M50.845 14.895C50.845 14.065 50.645 13.445 50.245 13.035C49.845 12.615 49.23 12.405 48.4 12.405C48.27 12.405 48.135 12.405 47.995 12.405C47.865 12.395 47.73 12.39 47.59 12.39C47.25 12.39 46.905 12.4 46.555 12.42C46.205 12.43 45.855 12.445 45.505 12.465V17.01C45.505 17.19 45.57 17.325 45.7 17.415C45.83 17.495 45.98 17.545 46.15 17.565C46.32 17.585 46.47 17.595 46.6 17.595C46.8 17.595 47 17.595 47.2 17.595C47.4 17.585 47.6 17.575 47.8 17.565C48.36 17.535 48.87 17.43 49.33 17.25C49.79 17.06 50.155 16.775 50.425 16.395C50.705 16.005 50.845 15.505 50.845 14.895ZM52.42 14.67C52.42 15.4 52.24 16.025 51.88 16.545C51.52 17.055 51 17.44 50.32 17.7C49.9 17.86 49.435 17.955 48.925 17.985C48.415 18.005 47.94 18.015 47.5 18.015C47.02 18.015 46.54 18.01 46.06 18C45.58 17.98 45.1 17.97 44.62 17.97C44.32 17.97 44.015 17.98 43.705 18C43.405 18.01 43.105 18.015 42.805 18.015C42.655 18.015 42.58 17.935 42.58 17.775C42.58 17.735 42.59 17.69 42.61 17.64C42.63 17.58 42.66 17.55 42.7 17.55C42.84 17.55 42.98 17.55 43.12 17.55C43.26 17.54 43.395 17.52 43.525 17.49C43.755 17.44 43.905 17.36 43.975 17.25C44.045 17.13 44.09 16.96 44.11 16.74C44.13 16.53 44.14 16.32 44.14 16.11C44.14 15.9 44.14 15.695 44.14 15.495C44.14 14.285 44.135 13.08 44.125 11.88C44.125 10.67 44.125 9.465 44.125 8.265C44.125 8.105 44.1 7.965 44.05 7.845C44 7.725 43.895 7.635 43.735 7.575C43.635 7.525 43.495 7.5 43.315 7.5C43.145 7.5 43.005 7.5 42.895 7.5C42.725 7.5 42.64 7.42 42.64 7.26C42.64 7.22 42.65 7.165 42.67 7.095C42.7 7.025 42.74 6.99 42.79 6.99C42.92 6.99 43.045 6.995 43.165 7.005C43.295 7.015 43.425 7.02 43.555 7.02C44.145 7.02 44.735 7.025 45.325 7.035C45.915 7.045 46.5 7.05 47.08 7.05C47.48 7.05 47.88 7.045 48.28 7.035C48.68 7.025 49.08 7.015 49.48 7.005C49.73 6.995 49.975 6.985 50.215 6.975C50.455 6.955 50.7 6.945 50.95 6.945C51 6.945 51.03 6.965 51.04 7.005C51.06 7.045 51.09 7.17 51.13 7.38C51.17 7.59 51.21 7.825 51.25 8.085C51.3 8.345 51.34 8.58 51.37 8.79C51.41 9 51.43 9.13 51.43 9.18C51.43 9.26 51.4 9.33 51.34 9.39C51.28 9.44 51.21 9.465 51.13 9.465C51.04 9.465 50.98 9.415 50.95 9.315C50.82 8.935 50.68 8.625 50.53 8.385C50.38 8.145 50.1 7.945 49.69 7.785C49.48 7.705 49.21 7.645 48.88 7.605C48.56 7.565 48.235 7.54 47.905 7.53C47.575 7.52 47.29 7.515 47.05 7.515C46.98 7.515 46.84 7.515 46.63 7.515C46.43 7.515 46.23 7.52 46.03 7.53C45.84 7.53 45.725 7.54 45.685 7.56C45.635 7.58 45.59 7.605 45.55 7.635C45.52 7.665 45.505 7.715 45.505 7.785V11.97C45.945 11.95 46.39 11.935 46.84 11.925C47.29 11.915 47.735 11.91 48.175 11.91C48.495 11.91 48.81 11.915 49.12 11.925C49.43 11.935 49.735 11.975 50.035 12.045C50.475 12.145 50.875 12.315 51.235 12.555C51.595 12.785 51.88 13.08 52.09 13.44C52.31 13.79 52.42 14.2 52.42 14.67ZM60.61 12.675C60.6 12.265 60.56 11.87 60.49 11.49C60.43 11.11 60.285 10.8 60.055 10.56C59.825 10.31 59.45 10.185 58.93 10.185C58.46 10.185 58.075 10.315 57.775 10.575C57.485 10.825 57.255 11.145 57.085 11.535C56.925 11.925 56.805 12.32 56.725 12.72C56.965 12.73 57.205 12.74 57.445 12.75C57.695 12.75 57.94 12.75 58.18 12.75C58.59 12.75 58.995 12.745 59.395 12.735C59.805 12.715 60.21 12.695 60.61 12.675ZM62.365 16.14C62.365 16.18 62.355 16.21 62.335 16.23C62.305 16.33 62.23 16.45 62.11 16.59C61.99 16.73 61.86 16.865 61.72 16.995C61.58 17.115 61.465 17.205 61.375 17.265C61.035 17.495 60.655 17.68 60.235 17.82C59.815 17.96 59.4 18.03 58.99 18.03C58.65 18.03 58.265 17.98 57.835 17.88C57.415 17.77 57.06 17.62 56.77 17.43C56.2 17.05 55.785 16.56 55.525 15.96C55.265 15.36 55.135 14.73 55.135 14.07C55.135 13.33 55.28 12.645 55.57 12.015C55.87 11.375 56.345 10.855 56.995 10.455C57.285 10.285 57.61 10.145 57.97 10.035C58.34 9.915 58.69 9.855 59.02 9.855C59.62 9.855 60.145 9.975 60.595 10.215C61.055 10.455 61.41 10.795 61.66 11.235C61.92 11.675 62.05 12.2 62.05 12.81C62.05 12.97 62.01 13.075 61.93 13.125C61.86 13.175 61.75 13.2 61.6 13.2C61.4 13.2 61.195 13.195 60.985 13.185C60.785 13.175 60.585 13.165 60.385 13.155C60.105 13.145 59.825 13.14 59.545 13.14C59.265 13.13 58.98 13.125 58.69 13.125C58.35 13.125 58.01 13.125 57.67 13.125C57.33 13.125 56.99 13.135 56.65 13.155C56.64 13.315 56.625 13.475 56.605 13.635C56.595 13.785 56.59 13.94 56.59 14.1C56.59 14.48 56.635 14.87 56.725 15.27C56.825 15.66 56.975 16.025 57.175 16.365C57.375 16.695 57.63 16.965 57.94 17.175C58.26 17.375 58.64 17.475 59.08 17.475C59.54 17.475 59.975 17.405 60.385 17.265C60.795 17.125 61.17 16.9 61.51 16.59C61.61 16.5 61.695 16.405 61.765 16.305C61.835 16.195 61.92 16.095 62.02 16.005C62.06 15.965 62.115 15.945 62.185 15.945C62.305 15.945 62.365 16.01 62.365 16.14ZM73.885 17.79C73.885 17.89 73.865 17.95 73.825 17.97C73.785 17.99 73.725 18 73.645 18H71.53C71.43 18 71.33 18 71.23 18C71.14 18.01 71.045 18.015 70.945 18.015C70.875 18.015 70.82 18.01 70.78 18C70.75 17.98 70.735 17.93 70.735 17.85C70.735 17.77 70.75 17.72 70.78 17.7C70.82 17.67 70.875 17.655 70.945 17.655C71.115 17.655 71.295 17.635 71.485 17.595C71.685 17.555 71.785 17.425 71.785 17.205C71.785 16.915 71.79 16.63 71.8 16.35C71.81 16.06 71.815 15.775 71.815 15.495V13.275C71.815 13.215 71.815 13.09 71.815 12.9C71.815 12.7 71.81 12.475 71.8 12.225C71.8 11.965 71.795 11.715 71.785 11.475C71.775 11.225 71.765 11.015 71.755 10.845C71.755 10.675 71.75 10.58 71.74 10.56C71.68 10.43 71.57 10.365 71.41 10.365H69.55C69.54 10.475 69.53 10.59 69.52 10.71C69.51 10.82 69.5 10.93 69.49 11.04C69.42 11.85 69.325 12.66 69.205 13.47C69.095 14.27 68.95 15.07 68.77 15.87C68.67 16.29 68.525 16.685 68.335 17.055C68.145 17.425 67.86 17.73 67.48 17.97C67.33 18.05 67.145 18.13 66.925 18.21C66.705 18.3 66.51 18.345 66.34 18.345C66.05 18.345 65.905 18.205 65.905 17.925C65.905 17.705 65.97 17.53 66.1 17.4C66.23 17.26 66.4 17.17 66.61 17.13C67.14 17.04 67.515 16.81 67.735 16.44C67.965 16.06 68.13 15.63 68.23 15.15C68.38 14.42 68.505 13.685 68.605 12.945C68.705 12.195 68.755 11.45 68.755 10.71C68.755 10.54 68.72 10.44 68.65 10.41C68.59 10.38 68.485 10.365 68.335 10.365C68.255 10.365 68.17 10.37 68.08 10.38C67.99 10.38 67.9 10.38 67.81 10.38C67.75 10.38 67.69 10.365 67.63 10.335C67.57 10.295 67.54 10.24 67.54 10.17C67.54 10.1 67.56 10.035 67.6 9.975C67.65 9.915 67.71 9.885 67.78 9.885H73.48C73.65 9.885 73.735 9.965 73.735 10.125C73.735 10.225 73.69 10.29 73.6 10.32C73.51 10.35 73.41 10.365 73.3 10.365C73.2 10.355 73.115 10.36 73.045 10.38C72.905 10.42 72.82 10.525 72.79 10.695C72.77 10.865 72.76 11.01 72.76 11.13C72.76 12.13 72.765 13.13 72.775 14.13C72.785 15.12 72.8 16.115 72.82 17.115C72.83 17.335 72.865 17.48 72.925 17.55C72.995 17.62 73.145 17.655 73.375 17.655C73.435 17.655 73.495 17.65 73.555 17.64C73.625 17.63 73.69 17.625 73.75 17.625C73.8 17.625 73.835 17.645 73.855 17.685C73.875 17.715 73.885 17.75 73.885 17.79ZM83.695 14.04C83.695 13.61 83.66 13.175 83.59 12.735C83.53 12.295 83.41 11.89 83.23 11.52C83.05 11.15 82.795 10.855 82.465 10.635C82.135 10.405 81.7 10.29 81.16 10.29C80.66 10.29 80.25 10.41 79.93 10.65C79.61 10.89 79.36 11.205 79.18 11.595C79.01 11.975 78.89 12.385 78.82 12.825C78.75 13.255 78.715 13.67 78.715 14.07C78.715 14.51 78.75 14.945 78.82 15.375C78.89 15.795 79.015 16.18 79.195 16.53C79.375 16.88 79.63 17.16 79.96 17.37C80.3 17.58 80.74 17.685 81.28 17.685C81.8 17.685 82.22 17.575 82.54 17.355C82.86 17.135 83.1 16.845 83.26 16.485C83.43 16.125 83.545 15.735 83.605 15.315C83.665 14.885 83.695 14.46 83.695 14.04ZM85.255 14.085C85.255 14.845 85.075 15.525 84.715 16.125C84.355 16.725 83.87 17.2 83.26 17.55C82.65 17.9 81.965 18.075 81.205 18.075C80.475 18.075 79.81 17.9 79.21 17.55C78.61 17.2 78.13 16.725 77.77 16.125C77.42 15.525 77.245 14.855 77.245 14.115C77.245 13.545 77.345 13.01 77.545 12.51C77.745 12 78.02 11.55 78.37 11.16C78.73 10.77 79.155 10.465 79.645 10.245C80.145 10.015 80.685 9.9 81.265 9.9C82.115 9.9 82.835 10.08 83.425 10.44C84.015 10.79 84.465 11.28 84.775 11.91C85.095 12.54 85.255 13.265 85.255 14.085ZM95.77 12.045C95.77 12.235 95.67 12.33 95.47 12.33C95.43 12.33 95.385 12.315 95.335 12.285C95.285 12.255 95.26 12.22 95.26 12.18C95.17 11.96 95.1 11.73 95.05 11.49C95.01 11.25 94.93 11.035 94.81 10.845C94.72 10.695 94.58 10.59 94.39 10.53C94.2 10.47 94 10.435 93.79 10.425C93.58 10.415 93.4 10.41 93.25 10.41C93.1 10.41 92.915 10.41 92.695 10.41C92.475 10.41 92.275 10.445 92.095 10.515C91.925 10.585 91.84 10.73 91.84 10.95V16.53C91.84 16.82 91.865 17.035 91.915 17.175C91.965 17.315 92.06 17.405 92.2 17.445C92.34 17.485 92.55 17.505 92.83 17.505C92.98 17.505 93.055 17.59 93.055 17.76C93.055 17.83 93.035 17.89 92.995 17.94C92.955 17.99 92.895 18.015 92.815 18.015C92.265 18.015 91.715 18.015 91.165 18.015C90.625 18.015 90.08 18.015 89.53 18.015C89.36 18.015 89.275 17.94 89.275 17.79C89.275 17.61 89.35 17.525 89.5 17.535C89.66 17.535 89.8 17.535 89.92 17.535C90.12 17.535 90.275 17.495 90.385 17.415C90.495 17.335 90.55 17.185 90.55 16.965V15.945C90.54 15.215 90.535 14.485 90.535 13.755C90.535 13.025 90.535 12.295 90.535 11.565C90.535 11.475 90.535 11.385 90.535 11.295C90.545 11.195 90.545 11.095 90.535 10.995C90.525 10.865 90.46 10.765 90.34 10.695C90.23 10.625 90.1 10.575 89.95 10.545C89.81 10.515 89.685 10.5 89.575 10.5C89.475 10.5 89.41 10.47 89.38 10.41C89.35 10.35 89.335 10.275 89.335 10.185C89.335 10.065 89.365 9.99 89.425 9.96C89.495 9.93 89.58 9.915 89.68 9.915C89.97 9.915 90.255 9.92 90.535 9.93C90.815 9.94 91.1 9.945 91.39 9.945C92.06 9.945 92.725 9.935 93.385 9.915C94.055 9.895 94.725 9.885 95.395 9.885C95.435 9.885 95.465 9.9 95.485 9.93C95.495 9.93 95.515 10.03 95.545 10.23C95.575 10.43 95.605 10.665 95.635 10.935C95.675 11.195 95.705 11.435 95.725 11.655C95.755 11.865 95.77 11.995 95.77 12.045ZM104.83 16.245C104.79 15.795 104.765 15.345 104.755 14.895C104.755 14.435 104.75 13.975 104.74 13.515H104.515C104.205 13.515 103.86 13.565 103.48 13.665C103.11 13.755 102.755 13.895 102.415 14.085C102.075 14.275 101.795 14.51 101.575 14.79C101.355 15.07 101.245 15.4 101.245 15.78C101.245 16.26 101.38 16.625 101.65 16.875C101.92 17.115 102.29 17.235 102.76 17.235C102.98 17.235 103.22 17.185 103.48 17.085C103.74 16.975 103.99 16.845 104.23 16.695C104.48 16.545 104.68 16.395 104.83 16.245ZM107.47 17.205C107.47 17.245 107.465 17.275 107.455 17.295C107.355 17.515 107.185 17.685 106.945 17.805C106.715 17.915 106.48 17.97 106.24 17.97C105.82 17.97 105.515 17.85 105.325 17.61C105.135 17.37 104.985 17.065 104.875 16.695C104.495 17.045 104.07 17.34 103.6 17.58C103.14 17.81 102.645 17.925 102.115 17.925C101.745 17.925 101.395 17.855 101.065 17.715C100.735 17.565 100.47 17.35 100.27 17.07C100.07 16.79 99.97 16.45 99.97 16.05C99.97 15.63 100.075 15.265 100.285 14.955C100.505 14.645 100.785 14.385 101.125 14.175C101.475 13.965 101.84 13.795 102.22 13.665C102.61 13.525 102.975 13.42 103.315 13.35C103.545 13.3 103.78 13.255 104.02 13.215C104.26 13.175 104.5 13.135 104.74 13.095C104.74 12.815 104.725 12.49 104.695 12.12C104.665 11.75 104.585 11.445 104.455 11.205C104.335 10.975 104.16 10.77 103.93 10.59C103.71 10.41 103.465 10.32 103.195 10.32C102.735 10.32 102.37 10.44 102.1 10.68C101.84 10.92 101.655 11.26 101.545 11.7C101.535 11.75 101.525 11.805 101.515 11.865C101.515 11.915 101.505 11.965 101.485 12.015C101.475 12.075 101.435 12.13 101.365 12.18C101.305 12.22 101.245 12.24 101.185 12.24C100.995 12.24 100.82 12.195 100.66 12.105C100.5 12.015 100.42 11.865 100.42 11.655C100.42 11.535 100.44 11.43 100.48 11.34C100.61 11.03 100.82 10.775 101.11 10.575C101.41 10.365 101.74 10.205 102.1 10.095C102.46 9.985 102.79 9.93 103.09 9.93C103.63 9.93 104.125 10.03 104.575 10.23C105.025 10.43 105.38 10.725 105.64 11.115C105.91 11.495 106.045 11.975 106.045 12.555C106.045 13.205 106.04 13.86 106.03 14.52C106.03 15.18 106.05 15.84 106.09 16.5C106.11 16.72 106.155 16.915 106.225 17.085C106.305 17.245 106.475 17.325 106.735 17.325C106.855 17.325 106.99 17.295 107.14 17.235C107.29 17.165 107.385 17.13 107.425 17.13C107.455 17.13 107.47 17.155 107.47 17.205ZM120.52 10.125C120.52 10.145 120.515 10.19 120.505 10.26C120.505 10.33 120.48 10.365 120.43 10.365C120 10.365 119.725 10.45 119.605 10.62C119.495 10.78 119.44 11.065 119.44 11.475C119.44 12.315 119.44 13.16 119.44 14.01C119.45 14.85 119.455 15.69 119.455 16.53C119.455 16.6 119.455 16.675 119.455 16.755C119.465 16.835 119.475 16.915 119.485 16.995C119.525 17.225 119.595 17.37 119.695 17.43C119.795 17.49 119.95 17.53 120.16 17.55C120.21 17.56 120.27 17.57 120.34 17.58C120.41 17.59 120.445 17.625 120.445 17.685V17.85C120.445 17.94 120.42 17.995 120.37 18.015C120.33 18.045 120.27 18.06 120.19 18.06C119.99 18.06 119.79 18.05 119.59 18.03C119.39 18.01 119.19 18 118.99 18H111.19C110.96 18 110.725 18.015 110.485 18.045C110.255 18.085 110.025 18.105 109.795 18.105C109.615 18.105 109.525 18.02 109.525 17.85C109.525 17.71 109.56 17.635 109.63 17.625C109.7 17.605 109.785 17.595 109.885 17.595C110.125 17.595 110.295 17.545 110.395 17.445C110.495 17.335 110.555 17.195 110.575 17.025C110.605 16.855 110.62 16.68 110.62 16.5C110.62 15.66 110.615 14.82 110.605 13.98C110.605 13.13 110.605 12.285 110.605 11.445C110.605 11.305 110.595 11.155 110.575 10.995C110.555 10.835 110.5 10.7 110.41 10.59C110.33 10.47 110.2 10.41 110.02 10.41C109.95 10.41 109.885 10.415 109.825 10.425C109.765 10.425 109.7 10.425 109.63 10.425C109.56 10.425 109.515 10.4 109.495 10.35C109.485 10.29 109.48 10.235 109.48 10.185C109.48 10.075 109.5 10 109.54 9.96C109.58 9.92 109.655 9.9 109.765 9.9C109.985 9.9 110.2 9.905 110.41 9.915C110.63 9.925 110.85 9.93 111.07 9.93C111.31 9.93 111.545 9.925 111.775 9.915C112.015 9.895 112.255 9.885 112.495 9.885C112.615 9.885 112.675 9.965 112.675 10.125C112.675 10.275 112.65 10.355 112.6 10.365C112.55 10.365 112.47 10.365 112.36 10.365C112.02 10.365 111.815 10.475 111.745 10.695C111.675 10.905 111.64 11.145 111.64 11.415V16.53C111.64 16.62 111.65 16.745 111.67 16.905C111.7 17.065 111.745 17.21 111.805 17.34C111.875 17.47 111.97 17.535 112.09 17.535H114.445V11.265C114.445 11.075 114.41 10.88 114.34 10.68C114.28 10.47 114.125 10.365 113.875 10.365C113.835 10.365 113.79 10.37 113.74 10.38C113.7 10.38 113.655 10.38 113.605 10.38C113.545 10.38 113.51 10.36 113.5 10.32C113.49 10.27 113.485 10.225 113.485 10.185C113.485 10.095 113.495 10.03 113.515 9.99C113.545 9.94 113.61 9.915 113.71 9.915H116.17C116.24 9.915 116.275 9.96 116.275 10.05C116.275 10.09 116.27 10.145 116.26 10.215C116.26 10.285 116.23 10.32 116.17 10.32C115.89 10.32 115.695 10.36 115.585 10.44C115.485 10.52 115.435 10.705 115.435 10.995C115.435 12.085 115.435 13.175 115.435 14.265C115.445 15.345 115.45 16.435 115.45 17.535H117.94C118.06 17.535 118.155 17.47 118.225 17.34C118.295 17.2 118.345 17.045 118.375 16.875C118.405 16.705 118.42 16.58 118.42 16.5C118.42 15.66 118.415 14.82 118.405 13.98C118.405 13.13 118.405 12.285 118.405 11.445C118.405 11.305 118.395 11.155 118.375 10.995C118.355 10.835 118.3 10.7 118.21 10.59C118.13 10.47 118 10.41 117.82 10.41C117.75 10.41 117.68 10.415 117.61 10.425C117.55 10.425 117.485 10.425 117.415 10.425C117.325 10.425 117.28 10.365 117.28 10.245C117.28 10.125 117.29 10.04 117.31 9.99C117.33 9.94 117.405 9.915 117.535 9.915C117.765 9.915 117.995 9.92 118.225 9.93C118.455 9.93 118.68 9.93 118.9 9.93C119.14 9.93 119.38 9.925 119.62 9.915C119.87 9.895 120.115 9.885 120.355 9.885C120.435 9.885 120.48 9.91 120.49 9.96C120.51 10 120.52 10.055 120.52 10.125Z" fill="black"/>
<path d="M49.84 23.39C49.84 23.31 49.835 23.16 49.825 22.94C49.825 22.72 49.82 22.505 49.81 22.295C49.8 22.085 49.78 21.955 49.75 21.905C49.69 21.805 49.615 21.74 49.525 21.71C49.445 21.67 49.35 21.65 49.24 21.65H46.33C46.21 22.74 46.095 23.84 45.985 24.95C45.875 26.06 45.72 27.16 45.52 28.25C45.32 29.34 45.025 30.405 44.635 31.445H47.05C47.51 31.445 47.97 31.445 48.43 31.445C48.89 31.435 49.35 31.43 49.81 31.43C49.82 30.99 49.825 30.555 49.825 30.125C49.835 29.685 49.84 29.245 49.84 28.805V23.39ZM53.275 33.32C53.275 33.41 53.26 33.5 53.23 33.59C53.21 33.69 53.145 33.74 53.035 33.74C52.965 33.74 52.905 33.715 52.855 33.665C52.805 33.625 52.765 33.575 52.735 33.515C52.615 33.315 52.505 33.135 52.405 32.975C52.305 32.815 52.16 32.66 51.97 32.51C51.82 32.38 51.62 32.275 51.37 32.195C51.13 32.125 50.885 32.07 50.635 32.03C50.385 31.99 50.16 31.97 49.96 31.97H45.7C45.37 31.97 44.985 31.98 44.545 32C44.105 32.03 43.68 32.105 43.27 32.225C42.86 32.345 42.54 32.535 42.31 32.795C42.19 32.925 42.095 33.065 42.025 33.215C41.965 33.375 41.88 33.52 41.77 33.65C41.73 33.7 41.685 33.725 41.635 33.725C41.565 33.725 41.515 33.715 41.485 33.695C41.465 33.675 41.455 33.625 41.455 33.545C41.455 33.255 41.48 32.95 41.53 32.63C41.59 32.32 41.655 32.025 41.725 31.745C41.755 31.625 41.795 31.535 41.845 31.475C41.905 31.405 42.005 31.37 42.145 31.37C42.465 31.37 42.79 31.3 43.12 31.16C43.45 31.02 43.675 30.785 43.795 30.455C44.255 29.145 44.6 27.77 44.83 26.33C45.07 24.88 45.19 23.465 45.19 22.085C45.19 22.005 45.18 21.93 45.16 21.86C45.14 21.79 45.09 21.735 45.01 21.695C45 21.685 44.945 21.68 44.845 21.68C44.755 21.67 44.66 21.665 44.56 21.665C44.47 21.655 44.41 21.65 44.38 21.65C44.27 21.65 44.16 21.66 44.05 21.68C43.95 21.7 43.845 21.71 43.735 21.71C43.595 21.71 43.525 21.64 43.525 21.5C43.525 21.42 43.535 21.315 43.555 21.185C43.575 21.055 43.645 20.99 43.765 20.99C44.045 20.99 44.32 21 44.59 21.02C44.87 21.04 45.15 21.05 45.43 21.05H47.86C48.61 21.05 49.36 21.04 50.11 21.02C50.86 20.99 51.61 20.975 52.36 20.975C52.44 20.975 52.49 20.995 52.51 21.035C52.54 21.065 52.555 21.12 52.555 21.2C52.555 21.39 52.53 21.515 52.48 21.575C52.44 21.635 52.315 21.665 52.105 21.665C52.055 21.665 52 21.66 51.94 21.65C51.89 21.64 51.84 21.635 51.79 21.635C51.65 21.635 51.54 21.655 51.46 21.695C51.38 21.735 51.33 21.83 51.31 21.98C51.27 22.14 51.25 22.305 51.25 22.475C51.26 22.635 51.265 22.8 51.265 22.97C51.255 23.95 51.24 24.93 51.22 25.91C51.21 26.89 51.205 27.87 51.205 28.85C51.205 29.69 51.22 30.54 51.25 31.4C51.51 31.4 51.775 31.395 52.045 31.385C52.315 31.375 52.585 31.37 52.855 31.37L53.02 31.4C53.09 31.42 53.135 31.465 53.155 31.535C53.175 31.605 53.19 31.67 53.2 31.73C53.22 31.99 53.235 32.255 53.245 32.525C53.265 32.795 53.275 33.06 53.275 33.32ZM63.52 31.76C63.52 31.86 63.485 31.925 63.415 31.955C63.355 31.975 63.285 31.985 63.205 31.985C62.995 31.985 62.785 31.985 62.575 31.985C62.375 31.975 62.17 31.97 61.96 31.97C61.73 31.97 61.495 31.975 61.255 31.985C61.015 31.995 60.78 32 60.55 32C60.48 32 60.44 31.975 60.43 31.925C60.42 31.875 60.415 31.83 60.415 31.79C60.415 31.65 60.46 31.58 60.55 31.58C60.64 31.58 60.735 31.58 60.835 31.58C61.085 31.58 61.24 31.49 61.3 31.31C61.36 31.13 61.39 30.94 61.39 30.74V24.35C61.03 25.41 60.665 26.475 60.295 27.545C59.935 28.615 59.55 29.675 59.14 30.725C59.09 30.865 59.04 31.02 58.99 31.19C58.94 31.35 58.875 31.49 58.795 31.61C58.755 31.67 58.7 31.7 58.63 31.7C58.62 31.7 58.6 31.7 58.57 31.7C58.54 31.69 58.52 31.685 58.51 31.685C58.47 31.665 58.41 31.57 58.33 31.4C58.25 31.23 58.2 31.115 58.18 31.055L55.42 24.395C55.42 25.465 55.415 26.54 55.405 27.62C55.405 28.69 55.405 29.76 55.405 30.83C55.405 31.01 55.425 31.185 55.465 31.355C55.505 31.515 55.64 31.595 55.87 31.595C55.94 31.595 56.005 31.59 56.065 31.58C56.125 31.57 56.19 31.565 56.26 31.565C56.32 31.565 56.36 31.59 56.38 31.64C56.41 31.69 56.425 31.74 56.425 31.79C56.425 31.93 56.345 32 56.185 32H54.19C54.11 32 54.06 31.98 54.04 31.94C54.02 31.89 54.01 31.83 54.01 31.76C54.01 31.67 54.05 31.62 54.13 31.61C54.21 31.6 54.285 31.595 54.355 31.595C54.675 31.595 54.865 31.535 54.925 31.415C54.985 31.295 55.015 31.09 55.015 30.8C55.015 29.75 55.02 28.705 55.03 27.665C55.04 26.615 55.045 25.57 55.045 24.53C55.045 24.42 54.995 24.355 54.895 24.335C54.805 24.315 54.72 24.305 54.64 24.305C54.57 24.305 54.505 24.31 54.445 24.32C54.385 24.32 54.32 24.32 54.25 24.32C54.16 24.32 54.1 24.3 54.07 24.26C54.05 24.22 54.04 24.16 54.04 24.08C54.04 24.05 54.045 24.01 54.055 23.96C54.065 23.9 54.095 23.87 54.145 23.87C54.515 23.87 54.885 23.875 55.255 23.885C55.625 23.895 55.995 23.895 56.365 23.885L58.945 30.215C59.345 29.175 59.72 28.13 60.07 27.08C60.42 26.02 60.77 24.96 61.12 23.9C61.49 23.9 61.86 23.9 62.23 23.9C62.6 23.89 62.97 23.885 63.34 23.885C63.39 23.885 63.42 23.93 63.43 24.02C63.44 24.1 63.445 24.155 63.445 24.185C63.445 24.255 63.42 24.31 63.37 24.35C63.32 24.38 63.265 24.395 63.205 24.395C63.135 24.395 63.07 24.39 63.01 24.38C62.95 24.37 62.885 24.365 62.815 24.365C62.755 24.365 62.68 24.375 62.59 24.395C62.5 24.415 62.455 24.465 62.455 24.545V30.8C62.455 30.99 62.49 31.17 62.56 31.34C62.63 31.5 62.775 31.58 62.995 31.58C63.065 31.58 63.13 31.575 63.19 31.565C63.25 31.555 63.315 31.55 63.385 31.55C63.445 31.55 63.48 31.575 63.49 31.625C63.51 31.675 63.52 31.72 63.52 31.76ZM74.11 31.745C74.11 31.845 74.09 31.915 74.05 31.955C74.02 31.985 73.955 32 73.855 32C73.645 32 73.435 31.995 73.225 31.985C73.025 31.975 72.825 31.97 72.625 31.97C72.405 31.97 72.18 31.975 71.95 31.985C71.73 31.995 71.51 32 71.29 32C71.22 32 71.175 31.975 71.155 31.925C71.145 31.875 71.14 31.825 71.14 31.775C71.14 31.635 71.18 31.57 71.26 31.58C71.34 31.58 71.43 31.58 71.53 31.58C71.76 31.58 71.9 31.49 71.95 31.31C72 31.12 72.025 30.935 72.025 30.755L72.04 26L68.005 30.575V30.77C68.005 30.94 68.035 31.11 68.095 31.28C68.165 31.45 68.31 31.535 68.53 31.535C68.59 31.535 68.645 31.535 68.695 31.535C68.755 31.525 68.82 31.52 68.89 31.52C68.94 31.52 68.97 31.545 68.98 31.595C69 31.635 69.01 31.68 69.01 31.73C69.01 31.91 68.925 32 68.755 32C68.535 32 68.32 31.995 68.11 31.985C67.9 31.975 67.685 31.97 67.465 31.97C67.245 31.97 67.02 31.98 66.79 32C66.57 32.01 66.35 32.015 66.13 32.015C66.06 32.015 66.015 31.99 65.995 31.94C65.975 31.89 65.965 31.84 65.965 31.79C65.965 31.66 66 31.59 66.07 31.58C66.15 31.56 66.245 31.555 66.355 31.565C66.465 31.565 66.565 31.54 66.655 31.49C66.785 31.41 66.865 31.29 66.895 31.13C66.925 30.97 66.94 30.825 66.94 30.695C66.94 29.775 66.935 28.86 66.925 27.95C66.925 27.03 66.925 26.115 66.925 25.205C66.925 25.005 66.885 24.81 66.805 24.62C66.735 24.43 66.58 24.335 66.34 24.335C66.28 24.335 66.225 24.34 66.175 24.35C66.125 24.35 66.075 24.35 66.025 24.35C65.965 24.35 65.92 24.325 65.89 24.275C65.87 24.215 65.86 24.165 65.86 24.125C65.86 23.965 65.935 23.885 66.085 23.885C66.315 23.885 66.545 23.89 66.775 23.9C67.015 23.9 67.25 23.9 67.48 23.9C67.68 23.9 67.875 23.895 68.065 23.885C68.265 23.865 68.46 23.855 68.65 23.855C68.73 23.855 68.79 23.87 68.83 23.9C68.88 23.92 68.905 23.97 68.905 24.05C68.905 24.15 68.885 24.22 68.845 24.26C68.805 24.29 68.735 24.305 68.635 24.305C68.345 24.305 68.165 24.395 68.095 24.575C68.035 24.745 68.005 24.95 68.005 25.19V30.005L72.04 25.205C72.04 25.085 72.03 24.96 72.01 24.83C72 24.69 71.96 24.575 71.89 24.485C71.83 24.395 71.715 24.35 71.545 24.35C71.425 24.35 71.31 24.355 71.2 24.365C71.09 24.365 71.035 24.285 71.035 24.125C71.035 24.035 71.04 23.975 71.05 23.945C71.07 23.905 71.13 23.885 71.23 23.885C71.48 23.885 71.73 23.89 71.98 23.9C72.23 23.9 72.48 23.9 72.73 23.9C72.91 23.9 73.09 23.895 73.27 23.885C73.45 23.875 73.63 23.87 73.81 23.87C73.97 23.87 74.05 23.94 74.05 24.08C74.05 24.24 73.98 24.325 73.84 24.335C73.71 24.335 73.59 24.345 73.48 24.365C73.3 24.405 73.19 24.525 73.15 24.725C73.12 24.925 73.105 25.095 73.105 25.235V30.68C73.105 30.87 73.135 31.06 73.195 31.25C73.255 31.44 73.405 31.535 73.645 31.535C73.695 31.535 73.75 31.535 73.81 31.535C73.87 31.525 73.93 31.52 73.99 31.52C74.04 31.52 74.07 31.545 74.08 31.595C74.1 31.645 74.11 31.695 74.11 31.745ZM85.405 25.535C85.405 25.595 85.39 25.66 85.36 25.73C85.34 25.79 85.29 25.82 85.21 25.82C85.12 25.82 85.065 25.795 85.045 25.745C85.025 25.685 85.005 25.62 84.985 25.55C84.895 25.23 84.8 24.99 84.7 24.83C84.61 24.67 84.48 24.565 84.31 24.515C84.14 24.465 83.895 24.44 83.575 24.44C83.395 24.44 83.215 24.44 83.035 24.44C82.855 24.44 82.68 24.45 82.51 24.47C82.36 24.48 82.225 24.515 82.105 24.575C81.985 24.635 81.925 24.755 81.925 24.935V30.8C81.925 31.04 81.965 31.21 82.045 31.31C82.125 31.41 82.225 31.47 82.345 31.49C82.465 31.51 82.58 31.52 82.69 31.52C82.81 31.51 82.91 31.52 82.99 31.55C83.07 31.58 83.11 31.66 83.11 31.79C83.11 31.91 83.085 31.98 83.035 32C82.985 32.02 82.905 32.03 82.795 32.03C82.545 32.03 82.29 32.02 82.03 32C81.78 31.98 81.525 31.97 81.265 31.97C80.985 31.97 80.705 31.98 80.425 32C80.155 32.01 79.88 32.015 79.6 32.015C79.46 32.015 79.39 31.935 79.39 31.775C79.39 31.635 79.425 31.56 79.495 31.55C79.565 31.53 79.65 31.52 79.75 31.52C80.15 31.52 80.395 31.435 80.485 31.265C80.575 31.095 80.62 30.84 80.62 30.5V29.915C80.62 29.235 80.615 28.56 80.605 27.89C80.605 27.21 80.605 26.535 80.605 25.865C80.605 25.725 80.605 25.59 80.605 25.46C80.615 25.33 80.615 25.2 80.605 25.07C80.575 24.75 80.42 24.57 80.14 24.53C79.89 24.49 79.64 24.465 79.39 24.455C79.15 24.435 78.905 24.425 78.655 24.425C78.345 24.425 78.12 24.495 77.98 24.635C77.85 24.775 77.755 24.935 77.695 25.115C77.645 25.295 77.595 25.455 77.545 25.595C77.495 25.735 77.4 25.805 77.26 25.805C77.19 25.805 77.145 25.78 77.125 25.73C77.105 25.68 77.095 25.625 77.095 25.565C77.095 25.535 77.11 25.45 77.14 25.31C77.17 25.16 77.21 24.995 77.26 24.815C77.31 24.635 77.355 24.465 77.395 24.305C77.435 24.145 77.46 24.035 77.47 23.975C77.49 23.925 77.51 23.895 77.53 23.885C77.56 23.875 77.6 23.87 77.65 23.87C77.85 23.87 78.045 23.875 78.235 23.885C78.435 23.895 78.63 23.905 78.82 23.915C79.24 23.925 79.66 23.93 80.08 23.93C80.51 23.93 80.935 23.93 81.355 23.93C81.965 23.93 82.57 23.92 83.17 23.9C83.77 23.88 84.375 23.87 84.985 23.87C85.005 23.87 85.025 23.88 85.045 23.9C85.065 23.92 85.095 24.01 85.135 24.17C85.175 24.32 85.215 24.495 85.255 24.695C85.295 24.885 85.33 25.06 85.36 25.22C85.39 25.38 85.405 25.485 85.405 25.535ZM95.38 27.74C95.38 27.38 95.35 27.01 95.29 26.63C95.24 26.24 95.14 25.88 94.99 25.55C94.84 25.22 94.62 24.955 94.33 24.755C94.05 24.555 93.68 24.455 93.22 24.455C92.9 24.455 92.585 24.545 92.275 24.725C91.975 24.895 91.715 25.12 91.495 25.4C91.285 25.68 91.145 25.98 91.075 26.3C91.045 26.45 91.03 26.605 91.03 26.765C91.03 26.925 91.03 27.085 91.03 27.245C91.03 27.605 91.03 27.965 91.03 28.325C91.03 28.675 91.03 29.03 91.03 29.39C91.03 29.73 91.115 30.05 91.285 30.35C91.465 30.64 91.695 30.875 91.975 31.055C92.265 31.235 92.58 31.325 92.92 31.325C93.44 31.325 93.86 31.22 94.18 31.01C94.5 30.8 94.745 30.52 94.915 30.17C95.095 29.81 95.215 29.42 95.275 29C95.345 28.58 95.38 28.16 95.38 27.74ZM96.85 27.77C96.85 29.02 96.52 30.015 95.86 30.755C95.2 31.495 94.23 31.865 92.95 31.865C92.58 31.865 92.23 31.78 91.9 31.61C91.58 31.44 91.29 31.23 91.03 30.98V32.66C91.03 32.9 91.075 33.06 91.165 33.14C91.265 33.23 91.39 33.275 91.54 33.275C91.69 33.275 91.855 33.275 92.035 33.275C92.135 33.275 92.22 33.29 92.29 33.32C92.37 33.35 92.41 33.425 92.41 33.545C92.41 33.595 92.39 33.645 92.35 33.695C92.32 33.755 92.27 33.785 92.2 33.785C91.9 33.785 91.6 33.78 91.3 33.77C91.01 33.76 90.715 33.755 90.415 33.755C90.115 33.755 89.815 33.76 89.515 33.77C89.215 33.79 88.915 33.8 88.615 33.8C88.545 33.8 88.49 33.77 88.45 33.71C88.42 33.65 88.405 33.595 88.405 33.545C88.405 33.385 88.475 33.3 88.615 33.29C88.755 33.28 88.88 33.275 88.99 33.275C89.23 33.275 89.41 33.23 89.53 33.14C89.65 33.05 89.71 32.875 89.71 32.615C89.71 32.425 89.71 32.24 89.71 32.06C89.72 31.88 89.725 31.695 89.725 31.505V27.635C89.725 27.255 89.725 26.875 89.725 26.495C89.725 26.105 89.715 25.72 89.695 25.34C89.685 25.05 89.635 24.885 89.545 24.845C89.465 24.795 89.295 24.77 89.035 24.77C88.935 24.77 88.83 24.775 88.72 24.785C88.61 24.795 88.5 24.8 88.39 24.8C88.23 24.8 88.15 24.735 88.15 24.605C88.15 24.465 88.2 24.37 88.3 24.32C88.31 24.32 88.39 24.305 88.54 24.275C88.69 24.245 88.88 24.21 89.11 24.17C89.34 24.13 89.57 24.09 89.8 24.05C90.03 24.01 90.225 23.98 90.385 23.96C90.555 23.93 90.655 23.915 90.685 23.915C90.785 23.915 90.855 23.96 90.895 24.05C90.915 24.08 90.93 24.175 90.94 24.335C90.96 24.495 90.98 24.66 91 24.83C91.02 25 91.03 25.115 91.03 25.175C91.35 24.815 91.71 24.51 92.11 24.26C92.52 24.01 92.975 23.885 93.475 23.885C94.205 23.885 94.82 24.07 95.32 24.44C95.82 24.8 96.2 25.275 96.46 25.865C96.72 26.455 96.85 27.09 96.85 27.77ZM107.86 31.745C107.86 31.845 107.84 31.915 107.8 31.955C107.77 31.985 107.705 32 107.605 32C107.395 32 107.185 31.995 106.975 31.985C106.775 31.975 106.575 31.97 106.375 31.97C106.155 31.97 105.93 31.975 105.7 31.985C105.48 31.995 105.26 32 105.04 32C104.97 32 104.925 31.975 104.905 31.925C104.895 31.875 104.89 31.825 104.89 31.775C104.89 31.635 104.93 31.57 105.01 31.58C105.09 31.58 105.18 31.58 105.28 31.58C105.51 31.58 105.65 31.49 105.7 31.31C105.75 31.12 105.775 30.935 105.775 30.755L105.79 26L101.755 30.575V30.77C101.755 30.94 101.785 31.11 101.845 31.28C101.915 31.45 102.06 31.535 102.28 31.535C102.34 31.535 102.395 31.535 102.445 31.535C102.505 31.525 102.57 31.52 102.64 31.52C102.69 31.52 102.72 31.545 102.73 31.595C102.75 31.635 102.76 31.68 102.76 31.73C102.76 31.91 102.675 32 102.505 32C102.285 32 102.07 31.995 101.86 31.985C101.65 31.975 101.435 31.97 101.215 31.97C100.995 31.97 100.77 31.98 100.54 32C100.32 32.01 100.1 32.015 99.88 32.015C99.81 32.015 99.765 31.99 99.745 31.94C99.725 31.89 99.715 31.84 99.715 31.79C99.715 31.66 99.75 31.59 99.82 31.58C99.9 31.56 99.995 31.555 100.105 31.565C100.215 31.565 100.315 31.54 100.405 31.49C100.535 31.41 100.615 31.29 100.645 31.13C100.675 30.97 100.69 30.825 100.69 30.695C100.69 29.775 100.685 28.86 100.675 27.95C100.675 27.03 100.675 26.115 100.675 25.205C100.675 25.005 100.635 24.81 100.555 24.62C100.485 24.43 100.33 24.335 100.09 24.335C100.03 24.335 99.975 24.34 99.925 24.35C99.875 24.35 99.825 24.35 99.775 24.35C99.715 24.35 99.67 24.325 99.64 24.275C99.62 24.215 99.61 24.165 99.61 24.125C99.61 23.965 99.685 23.885 99.835 23.885C100.065 23.885 100.295 23.89 100.525 23.9C100.765 23.9 101 23.9 101.23 23.9C101.43 23.9 101.625 23.895 101.815 23.885C102.015 23.865 102.21 23.855 102.4 23.855C102.48 23.855 102.54 23.87 102.58 23.9C102.63 23.92 102.655 23.97 102.655 24.05C102.655 24.15 102.635 24.22 102.595 24.26C102.555 24.29 102.485 24.305 102.385 24.305C102.095 24.305 101.915 24.395 101.845 24.575C101.785 24.745 101.755 24.95 101.755 25.19V30.005L105.79 25.205C105.79 25.085 105.78 24.96 105.76 24.83C105.75 24.69 105.71 24.575 105.64 24.485C105.58 24.395 105.465 24.35 105.295 24.35C105.175 24.35 105.06 24.355 104.95 24.365C104.84 24.365 104.785 24.285 104.785 24.125C104.785 24.035 104.79 23.975 104.8 23.945C104.82 23.905 104.88 23.885 104.98 23.885C105.23 23.885 105.48 23.89 105.73 23.9C105.98 23.9 106.23 23.9 106.48 23.9C106.66 23.9 106.84 23.895 107.02 23.885C107.2 23.875 107.38 23.87 107.56 23.87C107.72 23.87 107.8 23.94 107.8 24.08C107.8 24.24 107.73 24.325 107.59 24.335C107.46 24.335 107.34 24.345 107.23 24.365C107.05 24.405 106.94 24.525 106.9 24.725C106.87 24.925 106.855 25.095 106.855 25.235V30.68C106.855 30.87 106.885 31.06 106.945 31.25C107.005 31.44 107.155 31.535 107.395 31.535C107.445 31.535 107.5 31.535 107.56 31.535C107.62 31.525 107.68 31.52 107.74 31.52C107.79 31.52 107.82 31.545 107.83 31.595C107.85 31.645 107.86 31.695 107.86 31.745ZM119.11 31.745C119.11 31.845 119.09 31.915 119.05 31.955C119.02 31.985 118.955 32 118.855 32C118.645 32 118.435 31.995 118.225 31.985C118.025 31.975 117.825 31.97 117.625 31.97C117.405 31.97 117.18 31.975 116.95 31.985C116.73 31.995 116.51 32 116.29 32C116.22 32 116.175 31.975 116.155 31.925C116.145 31.875 116.14 31.825 116.14 31.775C116.14 31.635 116.18 31.57 116.26 31.58C116.34 31.58 116.43 31.58 116.53 31.58C116.76 31.58 116.9 31.49 116.95 31.31C117 31.12 117.025 30.935 117.025 30.755L117.04 26L113.005 30.575V30.77C113.005 30.94 113.035 31.11 113.095 31.28C113.165 31.45 113.31 31.535 113.53 31.535C113.59 31.535 113.645 31.535 113.695 31.535C113.755 31.525 113.82 31.52 113.89 31.52C113.94 31.52 113.97 31.545 113.98 31.595C114 31.635 114.01 31.68 114.01 31.73C114.01 31.91 113.925 32 113.755 32C113.535 32 113.32 31.995 113.11 31.985C112.9 31.975 112.685 31.97 112.465 31.97C112.245 31.97 112.02 31.98 111.79 32C111.57 32.01 111.35 32.015 111.13 32.015C111.06 32.015 111.015 31.99 110.995 31.94C110.975 31.89 110.965 31.84 110.965 31.79C110.965 31.66 111 31.59 111.07 31.58C111.15 31.56 111.245 31.555 111.355 31.565C111.465 31.565 111.565 31.54 111.655 31.49C111.785 31.41 111.865 31.29 111.895 31.13C111.925 30.97 111.94 30.825 111.94 30.695C111.94 29.775 111.935 28.86 111.925 27.95C111.925 27.03 111.925 26.115 111.925 25.205C111.925 25.005 111.885 24.81 111.805 24.62C111.735 24.43 111.58 24.335 111.34 24.335C111.28 24.335 111.225 24.34 111.175 24.35C111.125 24.35 111.075 24.35 111.025 24.35C110.965 24.35 110.92 24.325 110.89 24.275C110.87 24.215 110.86 24.165 110.86 24.125C110.86 23.965 110.935 23.885 111.085 23.885C111.315 23.885 111.545 23.89 111.775 23.9C112.015 23.9 112.25 23.9 112.48 23.9C112.68 23.9 112.875 23.895 113.065 23.885C113.265 23.865 113.46 23.855 113.65 23.855C113.73 23.855 113.79 23.87 113.83 23.9C113.88 23.92 113.905 23.97 113.905 24.05C113.905 24.15 113.885 24.22 113.845 24.26C113.805 24.29 113.735 24.305 113.635 24.305C113.345 24.305 113.165 24.395 113.095 24.575C113.035 24.745 113.005 24.95 113.005 25.19V30.005L117.04 25.205C117.04 25.085 117.03 24.96 117.01 24.83C117 24.69 116.96 24.575 116.89 24.485C116.83 24.395 116.715 24.35 116.545 24.35C116.425 24.35 116.31 24.355 116.2 24.365C116.09 24.365 116.035 24.285 116.035 24.125C116.035 24.035 116.04 23.975 116.05 23.945C116.07 23.905 116.13 23.885 116.23 23.885C116.48 23.885 116.73 23.89 116.98 23.9C117.23 23.9 117.48 23.9 117.73 23.9C117.91 23.9 118.09 23.895 118.27 23.885C118.45 23.875 118.63 23.87 118.81 23.87C118.97 23.87 119.05 23.94 119.05 24.08C119.05 24.24 118.98 24.325 118.84 24.335C118.71 24.335 118.59 24.345 118.48 24.365C118.3 24.405 118.19 24.525 118.15 24.725C118.12 24.925 118.105 25.095 118.105 25.235V30.68C118.105 30.87 118.135 31.06 118.195 31.25C118.255 31.44 118.405 31.535 118.645 31.535C118.695 31.535 118.75 31.535 118.81 31.535C118.87 31.525 118.93 31.52 118.99 31.52C119.04 31.52 119.07 31.545 119.08 31.595C119.1 31.645 119.11 31.695 119.11 31.745ZM117.28 21.305C117.28 21.515 117.19 21.69 117.01 21.83C116.84 21.97 116.625 22.085 116.365 22.175C116.115 22.265 115.865 22.33 115.615 22.37C115.365 22.41 115.16 22.43 115 22.43C114.84 22.43 114.635 22.41 114.385 22.37C114.135 22.33 113.88 22.265 113.62 22.175C113.37 22.085 113.16 21.97 112.99 21.83C112.82 21.69 112.735 21.515 112.735 21.305C112.735 21.155 112.78 21.02 112.87 20.9C112.97 20.77 113.1 20.705 113.26 20.705C113.41 20.705 113.525 20.77 113.605 20.9C113.695 21.02 113.74 21.15 113.74 21.29C113.74 21.33 113.735 21.37 113.725 21.41C113.715 21.44 113.7 21.475 113.68 21.515C113.88 21.595 114.085 21.665 114.295 21.725C114.515 21.775 114.735 21.8 114.955 21.8C115.185 21.8 115.415 21.775 115.645 21.725C115.875 21.665 116.095 21.59 116.305 21.5C116.295 21.46 116.285 21.425 116.275 21.395C116.275 21.355 116.275 21.32 116.275 21.29C116.275 21.15 116.315 21.02 116.395 20.9C116.475 20.77 116.59 20.705 116.74 20.705C116.89 20.705 117.015 20.77 117.115 20.9C117.225 21.02 117.28 21.155 117.28 21.305Z" fill="#393939"/>
</svg>
